<?xml version="1.0" encoding="iso-8859-1"?>
<!-- Generator: Adobe Illustrator 19.0.0, SVG Export Plug-In . SVG Version: 6.00 Build 0)  -->
<svg version="1.1" id="Drone" xmlns="http://www.w3.org/2000/svg" xmlns:xlink="http://www.w3.org/1999/xlink" x="0px" y="0px"
	 viewBox="0 0 512 512" style="enable-background:new 0 0 512 512;" xml:space="preserve">
<g>
	<circle style="fill:#D2F2FF;" cx="425.597" cy="256" r="86.403"/>
	<circle style="fill:#D2F2FF;" cx="86.403" cy="256" r="86.403"/>
	<circle style="fill:#D2F2FF;" cx="256" cy="425.597" r="86.403"/>
	<circle style="fill:#D2F2FF;" cx="256" cy="86.403" r="86.403"/>
</g>
<g>
	<path style="fill:#AFCCD3;" d="M425.6,322.998c-4.329,0-7.837-3.509-7.837-7.837v-48.423c0-4.328,3.508-7.837,7.837-7.837
		s7.837,3.509,7.837,7.837v48.423C433.437,319.489,429.928,322.998,425.6,322.998z"/>
	<path style="fill:#AFCCD3;" d="M425.6,253.096c-4.329,0-7.837-3.509-7.837-7.837v-48.423c0-4.328,3.508-7.837,7.837-7.837
		s7.837,3.509,7.837,7.837v48.423C433.437,249.587,429.928,253.096,425.6,253.096z"/>
	<path style="fill:#AFCCD3;" d="M484.763,263.836h-50.361c-4.329,0-7.837-3.509-7.837-7.837c0-4.328,3.508-7.837,7.837-7.837h50.361
		c4.329,0,7.837,3.509,7.837,7.837C492.599,260.327,489.091,263.836,484.763,263.836z"/>
	<path style="fill:#AFCCD3;" d="M86.104,322.998c-4.329,0-7.837-3.509-7.837-7.837v-48.423c0-4.328,3.508-7.837,7.837-7.837
		s7.837,3.509,7.837,7.837v48.423C93.94,319.489,90.433,322.998,86.104,322.998z"/>
	<path style="fill:#AFCCD3;" d="M86.104,253.096c-4.329,0-7.837-3.509-7.837-7.837v-48.423c0-4.328,3.508-7.837,7.837-7.837
		s7.837,3.509,7.837,7.837v48.423C93.94,249.587,90.433,253.096,86.104,253.096z"/>
	<path style="fill:#AFCCD3;" d="M77.304,263.836H26.942c-4.329,0-7.837-3.509-7.837-7.837c0-4.328,3.508-7.837,7.837-7.837h50.361
		c4.329,0,7.837,3.509,7.837,7.837C85.139,260.327,81.632,263.836,77.304,263.836z"/>
	<path style="fill:#AFCCD3;" d="M245.113,433.584h-48.424c-4.329,0-7.837-3.509-7.837-7.837s3.508-7.837,7.837-7.837h48.424
		c4.329,0,7.837,3.509,7.837,7.837S249.442,433.584,245.113,433.584z"/>
	<path style="fill:#AFCCD3;" d="M315.015,433.584h-48.423c-4.329,0-7.837-3.509-7.837-7.837s3.508-7.837,7.837-7.837h48.423
		c4.329,0,7.837,3.509,7.837,7.837S319.343,433.584,315.015,433.584z"/>
	<path style="fill:#AFCCD3;" d="M255.853,492.746c-4.329,0-7.837-3.509-7.837-7.837v-50.361c0-4.328,3.508-7.837,7.837-7.837
		c4.329,0,7.837,3.509,7.837,7.837v50.361C263.689,489.237,260.181,492.746,255.853,492.746z"/>
	<path style="fill:#AFCCD3;" d="M245.113,94.088h-48.424c-4.329,0-7.837-3.509-7.837-7.837s3.508-7.837,7.837-7.837h48.424
		c4.329,0,7.837,3.509,7.837,7.837S249.442,94.088,245.113,94.088z"/>
	<path style="fill:#AFCCD3;" d="M315.015,94.088h-48.423c-4.329,0-7.837-3.509-7.837-7.837s3.508-7.837,7.837-7.837h48.423
		c4.329,0,7.837,3.509,7.837,7.837S319.343,94.088,315.015,94.088z"/>
	<path style="fill:#AFCCD3;" d="M255.853,85.287c-4.329,0-7.837-3.509-7.837-7.837V27.089c0-4.328,3.508-7.837,7.837-7.837
		c4.329,0,7.837,3.509,7.837,7.837V77.45C263.689,81.778,260.181,85.287,255.853,85.287z"/>
</g>
<path style="fill:#F26464;" d="M425.6,266.741l-81.408,16.217c-0.219,0.042-0.428,0.084-0.648,0.136
	c-30.386,6.322-54.136,30.062-60.447,60.447c-0.052,0.219-0.094,0.428-0.136,0.648l-16.217,81.408
	c-2.351,11.755-19.143,11.755-21.483,0l-16.217-81.408c-0.042-0.219-0.084-0.439-0.136-0.648
	c-2.184-10.512-6.457-20.229-12.372-28.703v-0.01c-11.18-16.018-28.202-27.606-48.076-31.734c-0.219-0.052-0.428-0.094-0.648-0.136
	l-81.408-16.217c-11.755-2.351-11.755-19.132,0-21.483l81.408-16.217c0.219-0.042,0.428-0.084,0.648-0.136
	c30.375-6.322,54.115-30.062,60.447-60.437c0.042-0.219,0.094-0.439,0.136-0.658l16.217-81.408c2.341-11.745,19.132-11.745,21.483,0
	l8.223,41.284l7.993,40.124c0.042,0.219,0.084,0.439,0.136,0.658c6.322,30.375,30.072,54.115,60.447,60.437
	c0.219,0.052,0.428,0.094,0.648,0.136l81.408,16.217C437.345,247.608,437.345,264.389,425.6,266.741z"/>
<path style="fill:#DD5757;" d="M216.537,314.823c-11.303-16.194-28.578-27.857-48.727-31.868l-81.407-16.216
	c-11.753-2.344-11.753-19.135,0-21.479l81.407-16.216c30.911-6.164,55.071-30.325,61.235-61.236l16.216-81.407
	c2.344-11.743,19.135-11.743,21.479,0l8.226,41.289C274.967,127.69,182.179,219.273,216.537,314.823z"/>
<circle style="fill:#F9E27D;" cx="256" cy="256" r="32.115"/>
<g>
	<path style="fill:#F78181;" d="M425.6,266.741l-81.408,16.217c-0.219,0.042-0.428,0.084-0.648,0.136
		c-2.821-8.526-4.347-17.627-4.347-27.094s1.526-18.568,4.347-27.094c0.219,0.052,0.428,0.094,0.648,0.136l81.408,16.217
		C437.345,247.608,437.345,264.389,425.6,266.741z"/>
	<path style="fill:#F78181;" d="M172.798,255.999c0,9.467-1.526,18.568-4.336,27.094c-0.219-0.052-0.428-0.094-0.648-0.136
		L86.406,266.74c-11.755-2.351-11.755-19.132,0-21.483l81.408-16.217c0.219-0.042,0.428-0.084,0.648-0.136
		C171.272,237.431,172.798,246.532,172.798,255.999z"/>
	<path style="fill:#F78181;" d="M283.097,343.54c-0.052,0.219-0.094,0.428-0.136,0.648l-16.217,81.408
		c-2.351,11.755-19.143,11.755-21.483,0l-16.217-81.408c-0.042-0.219-0.084-0.439-0.136-0.648
		c8.516-2.821,17.627-4.347,27.094-4.347S274.571,340.719,283.097,343.54z"/>
	<path style="fill:#F78181;" d="M283.097,168.468c-8.526,2.811-17.627,4.336-27.094,4.336s-18.578-1.515-27.094-4.336
		c0.042-0.219,0.094-0.439,0.136-0.658l16.217-81.408c2.341-11.745,19.132-11.745,21.483,0l8.223,41.284l7.993,40.124
		C283.003,168.029,283.045,168.248,283.097,168.468z"/>
</g>
<g>
</g>
<g>
</g>
<g>
</g>
<g>
</g>
<g>
</g>
<g>
</g>
<g>
</g>
<g>
</g>
<g>
</g>
<g>
</g>
<g>
</g>
<g>
</g>
<g>
</g>
<g>
</g>
<g>
</g>
</svg>
